<?xml version="1.0" encoding="utf-8"?>
<!-- Generator: Adobe Illustrator 16.0.0, SVG Export Plug-In . SVG Version: 6.00 Build 0)  -->
<!DOCTYPE svg PUBLIC "-//W3C//DTD SVG 1.1//EN" "http://www.w3.org/Graphics/SVG/1.1/DTD/svg11.dtd">
<svg version="1.1" id="Layer_1" xmlns="http://www.w3.org/2000/svg" xmlns:xlink="http://www.w3.org/1999/xlink" x="0px" y="0px"
	 width="864px" height="864px" viewBox="0 0 864 864" enable-background="new 0 0 864 864" xml:space="preserve">
<path fill-rule="evenodd" clip-rule="evenodd" d="M835.665,219.537c-4.62-3.928-9.517-7.541-14.411-11.132
	c-8.854-6.496-17.725-12.968-26.707-19.284c-3.304-2.322-6.927-4.192-10.424-6.234c-4.904-2.864-9.6-6.244-14.801-8.406
	c-7.18-2.984-15.116-4.285-22.038-7.704c-6.891-3.402-13.843-3.914-21.124-4.034c-5.715-0.096-6.988-2.487-4.033-7.467
	c1.407-2.372,3.422-4.473,4.416-6.991c2.937-7.426,5.264-15.094,8.295-22.476c1.881-4.575,0.734-7.826-3.127-10.154
	c-9.394-5.669-18.291-2.868-25.111,5.098c-4.46,5.209-7.195,11.896-10.716,17.914c-4.527,7.741-8.582,15.818-13.729,23.126
	c-6.402,9.092-13.411,17.808-20.71,26.203c-7.536,8.668-15.111,17.485-23.791,24.928c-13.291,11.394-27.493,21.726-41.441,32.334
	c-1.803,1.37-4.398,1.695-6.726,2.54c-0.405-1.206-0.694-1.666-0.68-2.112c0.031-0.812,0.248-1.615,0.375-2.423
	c1.118-7.091,2.227-14.185,3.347-21.274c0.641-4.045,1.145-8.119,1.994-12.119c0.853-4.011,2.497-7.89,3.021-11.926
	c1.746-13.387,3.789-26.783,4.535-40.241c1.33-23.908,1.847-47.861,2.519-71.801c0.054-1.935-0.739-4.749-2.134-5.708
	c-4.364-2.999-7.965-7.57-14.122-7.473c-1.844,0.03-3.695-1.254-5.57-1.851c-3.566-1.137-7.107-2.95-10.741-3.167
	c-8.729-0.52-17.506-0.378-26.261-0.268c-1.862,0.024-4.571,0.473-5.41,1.72c-3.316,4.929-7.151,9.335-7.836,16.055
	c-1.178,11.51-3.957,22.857-6.066,34.272c-0.029,0.159-0.078,0.334-0.171,0.462c-4.179,5.617-4.414,12.271-5.113,18.849
	c-0.22,2.075-1.286,4.05-1.839,6.104c-1.145,4.256-2.266,8.52-3.275,12.809c-0.434,1.853-0.568,3.775-0.837,5.666
	c-0.947,0.625-1.893,1.25-2.838,1.874c-0.997-1.878-1.903-3.809-3.004-5.624c-4.315-7.115-8.391-14.406-13.169-21.199
	c-2.448-3.48-5.95-8.186-9.406-8.58c-7.073-0.806-10.935-6.166-16.591-8.729c-5.609-2.538-10.71-6.455-16.504-8.266
	c-6.847-2.139-14.182-2.764-21.335-3.839c-2.419-0.363-5.196-0.801-7.359,0.005c-9.983,3.72-21.218,1.825-30.81,7.993
	c-7.544,4.852-14.986,9.233-18.905,17.768c-2.12,4.616-6.586,5.965-10.544,4.415c-4.953-1.942-10.134-3.527-15.36-4.497
	c-6.632-1.229-13.401-1.737-20.124-2.462c-5.406-0.583-10.878-1.756-16.234-1.394c-16.611,1.121-33.186,2.809-49.763,4.4
	c-1.923,0.183-3.751,1.214-5.657,1.723c-4.395,1.171-8.815,2.24-13.216,3.391c-8.518,2.225-17.034,4.462-25.537,6.747
	c-0.593,0.16-1.018,0.866-1.605,1.133c-2.488,1.13-4.988,2.241-7.523,3.261c-2.854,1.146-5.697,2.381-8.649,3.199
	c-1.89,0.524-4.315,1.116-5.906,0.385c-8.092-3.722-15.824-8.399-24.014-11.758c-1.34-0.55-2.692-1.063-4.061-1.532
	c-5.02-1.673-21.636-8.707-32.511-2.852s-26.77,4.183-35.972,12.548c-5.707,5.188-10.038,14.222-18.403,23.424
	c-6.292,6.921-6.692,20.076-8.365,27.605c-1.674,7.529-8.323,21.786-7.09,27.624c0.38,1.799-0.779,3.959-0.49,5.865
	c1.354,8.936,2.919,17.84,4.468,26.744c0.134,0.777,0.671,1.499,1.081,2.212c4.301,7.492,8.291,15.163,15.303,20.714
	c5.783,4.577,11.291,8.986,19.215,9.924c4.787,0.566,24.776,0.046,28.28-0.017c7.073-0.129,13.731-1.048,19.543-5.506
	c0.83-0.636,2.202-0.563,4.47-1.08c1.095,1.056,3.396,2.251,3.932,3.989c1.343,4.357,1.817,8.975,2.765,13.462
	c1.239,5.874,2.594,11.725,3.909,17.582c0.469,2.081,0.82,4.204,1.494,6.218c1.124,3.354,2.471,6.631,3.712,9.944
	c0.628,1.677,1.162,3.394,1.857,5.041c1.244,2.943,2.698,5.803,3.814,8.79c0.443,1.183,8.8,23.089,5.834,26.242
	c-1.524,1.621-2.786,3.684-3.567,5.771c-2.389,6.391-4.467,12.898-6.726,19.34c-0.264,0.748-0.982,1.325-1.345,2.055
	c-1.222,2.461-2.65,4.865-3.508,7.454c-2.305,6.961-4.326,14.016-6.537,21.008c-0.287,0.908-1.145,1.621-1.537,2.512
	c-1.039,2.363-2.244,4.701-2.891,7.178c-2.298,8.828-4.382,17.71-6.576,26.563c-0.156,0.627-0.64,1.166-0.831,1.787
	c-1.434,4.65-2.901,9.291-4.215,13.975c-0.752,2.688-1.252,5.447-1.84,8.18c-1.134,5.252-2.408,10.482-3.323,15.773
	c-0.783,4.523-0.971,9.148-1.733,13.676c-1.2,7.115-3.256,14.141-3.861,21.295c-0.752,8.867,0.022,17.861-0.599,26.748
	c-1.529,21.902,2.159,43.215,6.592,64.469c0.395,1.887,1.545,3.617,2.343,5.42c0.729,1.639,1.487,3.266,2.179,4.92
	c2.618,6.268,4.45,13.02,7.989,18.711c6.275,10.098,12.08,20.729,21.195,28.711c7.731,6.771,15.708,13.285,23.84,19.57
	c3.814,2.951,8.137,5.314,12.433,7.555c6.002,3.129,11.96,6.652,18.362,8.623c8.518,2.623,16.549,7.449,25.953,6.789
	c0.608-0.043,1.348,0.252,1.86,0.621c5.718,4.127,12.404,3.953,18.984,4.553c4.739,0.432,9.441,1.4,14.12,2.33
	c14.034,2.781,28.114,4.018,42.264,1.094c6.388-1.318,9.797,1.387,9.753,7.793c-0.108,15.699-0.082,31.402,0.071,47.102
	c0.021,2.016,0.647,4.363,1.804,5.975c6.78,9.432,17.139,14.393,27.281,18.281c7.872,3.02,17.185,2.939,25.867,3.008
	c8.188,0.064,16.403-1.383,24.577-2.387c1.892-0.232,3.697-1.307,5.501-2.09c6.967-3.023,13.837-6.293,20.901-9.066
	c5.085-1.992,9.466-7.082,9.45-12.016c-0.051-16.193-0.827-32.428,0.052-48.572c0.901-16.613,3.247-33.162,5.419-49.678
	c0.31-2.361,2.844-5.721,4.966-6.281c4.293-1.141,8.771-1.16,11.862-5.105c0.485-0.619,1.888-0.932,2.759-0.779
	c7.676,1.357,12.808-3.854,17.205-8.162c12.278-12.027,21.628-26.156,25.592-43.283c0.223-0.955,0.46-2,1.018-2.77
	c3.717-5.135,4.065-11.047,4.089-17.043c0.025-7.107-0.683-14.299,0.167-21.305c1.979-16.266-5.594-30.982-6.808-46.686
	c-0.105-1.371-1.314-2.625-1.82-4.004c-1.054-2.889-2.063-5.801-2.949-8.744c-2.341-7.781-4.579-15.59-6.938-23.365
	c-0.222-0.73-1.137-1.229-1.485-1.951c-1.118-2.332-2.698-4.629-3.07-7.098c-1.346-8.896-1.573-17.697,4.184-25.545
	c1.016-1.379,1.154-3.402,1.689-5.131c2.112-6.826,3.984-13.738,6.42-20.444c1.369-3.771,3.59-7.248,5.6-10.76
	c0.524-0.918,1.58-1.848,2.572-2.125c5.176-1.439,10.397-2.715,15.628-3.951c2.231-0.527,4.837-0.252,6.717-1.318
	c5.352-3.037,10.724-6.193,15.53-10.005c8.417-6.676,14.984-14.63,14.979-26.305c0-2.229,0.867-4.516,1.611-6.681
	c2.332-6.785,2.712-13.508,0.305-20.396c-1.022-2.919-1.702-6.03-2.018-9.106c-0.777-7.616-5.385-13.062-9.666-18.878
	c-2.064-2.804-3.753-6.512-3.944-9.902c-0.22-3.922,1.625-7.916,2.167-11.935c1.139-8.434,5.68-14.601,12.497-19.21
	c1.705-1.152,4.205-1.113,5.953-2.229c7.392-4.719,14.651-9.64,21.927-14.542c2.98-2.008,6.003-3.988,8.779-6.262
	c10-8.187,20.351-16.019,29.713-24.887c9.656-9.145,18.298-19.357,27.415-29.07c2.585-2.755,4.799-1.789,6.175,1.173
	c0.813,1.75,0.948,3.82,1.346,5.757c0.594,2.895,0.71,5.978,1.811,8.661c2.817,6.866,5.974,13.599,9.169,20.302
	c2.515,5.276,4.881,10.692,8.042,15.575c4.708,7.268,9.651,14.463,15.248,21.047c5.403,6.355,11.544,12.135,17.779,17.702
	c3.512,3.135,7.394,1.564,7.306-2.876c-0.269-13.683-0.8-27.376-1.764-41.026c-0.658-9.33-2.035-18.623-3.422-27.882
	c-0.772-5.146-2.275-10.181-3.357-15.286c-1.165-5.503-2.227-11.028-3.494-17.362c11.635,3.001,21.815,5.624,31.993,8.254
	c0.155,0.04,0.279,0.193,0.432,0.236c4.378,1.233,8.686,2.979,13.148,3.577c8.99,1.209,18.058,2.396,27.103,2.472
	c9.851,0.083,19.727-0.938,29.548-1.908c1.625-0.162,3.766-2.294,4.306-3.957C838.099,223.152,836.926,220.608,835.665,219.537z
	 M454.59,318.821c-3.349-1.106-0.473-4.277,0.078-6.713c1.732-7.646,3.004-15.397,4.453-23.107
	c-0.427-0.063-0.853-0.128-1.277-0.191c0-3.963,0.012-7.925-0.003-11.888c-0.012-3.237,1.236-5.044,4.804-4.447
	c1.134,0.189,2.332,0.041,3.453,0.274c3.731,0.781,7.44,1.666,11.159,2.511c-0.669,5.132-1.046,10.325-2.104,15.375
	c-0.824,3.933-2.42,7.715-3.81,11.515c-1.939,5.311-3.192,11.158-6.382,15.593C463.551,319.701,457.736,319.86,454.59,318.821z"/>
<g>
	<path fill-rule="evenodd" clip-rule="evenodd" fill="#39B54A" d="M818.152,218.81c-1.875,0.721-2.464,1.158-3.029,1.134
		c-12.869-0.556-25.793-0.629-38.588-1.947c-8.411-0.866-16.823-2.974-24.889-5.587c-6.702-2.169-12.893-5.905-19.326-8.915
		c-5.132-2.403-10.506-4.379-15.375-7.229c-6.324-3.702-12.381-7.908-18.293-12.251c-2.342-1.721-2.605-4.366,0.587-5.912
		c9.904-4.8,20.188-7.98,31.358-5.978c3.353,0.603,6.591,1.877,9.853,2.933c1.245,0.402,2.368,1.192,3.618,1.573
		c7.438,2.277,15.029,4.137,22.305,6.846c4.517,1.681,8.731,4.364,12.794,7.033c10.48,6.885,20.855,13.933,31.146,21.1
		C812.93,213.433,815.068,215.943,818.152,218.81z"/>
	<path fill-rule="evenodd" clip-rule="evenodd" fill="#39B54A" d="M732.393,303.446c-3.536-3.49-6.71-5.827-8.843-8.888
		c-4.934-7.071-9.466-14.43-13.96-21.794c-3.111-5.1-5.888-10.406-8.819-15.616c-0.16-0.286-0.47-0.51-0.565-0.81
		c-2.266-7.133-4.554-14.262-6.733-21.422c-0.573-1.883-0.201-4.341-1.291-5.729c-5.421-6.903-4.21-14.952-4.554-22.776
		c-0.181-4.119-0.782-8.227-0.831-12.344c-0.021-1.607,0.953-3.227,1.475-4.84c1.555,0.59,3.313,0.894,4.631,1.821
		c6.808,4.786,13.499,9.736,20.237,14.621c0.92,0.666,2.395,1.085,2.732,1.959c2.567,6.65,5.023,13.351,7.296,20.108
		c1.452,4.32,2.624,8.743,3.753,13.162c0.847,3.324,1.738,6.688,2.063,10.086c1.438,14.937,2.681,29.894,3.993,44.844
		c0.113,1.313,0.299,2.624,0.32,3.938C733.305,300.396,733.005,301.028,732.393,303.446z"/>
</g>
<g>
	<path fill-rule="evenodd" clip-rule="evenodd" fill="#8B5E3C" stroke="#754C29" stroke-width="1.3223" stroke-miterlimit="10" d="
		M521.418,403.414c1.792,3.354,4.019,6.555,5.271,10.101c1.769,5.008,1.257,9.665-2.217,14.406
		c-3.401,4.646-5.493,10.269-8.011,15.535c-1.606,3.357-3.084,6.793-4.362,10.287c-2.511,6.855-4.809,13.784-7.257,20.661
		c-0.873,2.449-1.935,4.832-2.888,7.252c-0.78,1.979-1.611,3.941-2.275,5.957c-1.413,4.299-2.9,8.586-4.055,12.957
		c-2.575,9.752-5.225,19.498-7.304,29.357c-0.793,3.77-0.667,6.918-5.845,7.496c-1.777,0.197-4.329,3.746-4.53,5.945
		c-0.699,7.625-1.818,14.949-5.437,21.871c-1.136,2.176-0.925,5.164-0.969,7.787c-0.103,6.135-0.335,12.031-3.688,17.664
		c-1.534,2.576-1.193,6.381-1.322,9.645c-0.116,2.936-1.018,4.523-4.197,4.922c-11.306,1.418-16.719,11.9-13.425,21.344
		c1.414,4.055,0.97,6.602-2.64,9.291c-4.3,3.209-4.174,11.82-0.031,15.465c3.164,2.779,2.823,5.115,0.261,7.957
		c-4.448,4.934-4.053,10.152,0.687,14.662c4.854,4.623,8.943,9.475,7.349,17.143c-1.103,5.305-0.75,10.902-1.775,16.23
		c-5.461,28.348-3.281,56.994-3.693,85.539c-0.026,1.818-0.051,3.639,0.045,5.453c0.251,4.758-0.842,7.596-6.434,9.143
		c-6.747,1.867-12.891,5.891-19.337,8.893c-1.469,0.684-3.1,1.424-4.661,1.436c-13.855,0.115-27.713,0.092-41.57,0.041
		c-1.118-0.004-2.392-0.266-3.326-0.842c-6.383-3.924-12.884-7.709-18.913-12.129c-1.788-1.312-3.014-4.496-3.085-6.865
		c-0.394-13.045-0.346-26.102-0.457-39.156c-0.027-3.229,1.337-4.938,4.78-4.768c3.135,0.152,6.354,0.545,9.401,0.029
		c4.271-0.723,8.419-2.172,12.609-3.35c0.628-0.176,1.173-0.693,1.801-0.809c8.479-1.574,15.267-6.422,21.953-11.402
		c6.177-4.6,12.706-8.879,18.193-14.211c5.372-5.221,10.427-11.133,14.126-17.6c3.249-5.678,4.843-12.439,6.389-18.91
		c1.175-4.912,0.108-9.58-3.665-13.754c-1.836-2.031-2.499-5.648-2.615-8.59c-0.171-4.354-1.576-7.266-5.209-9.926
		c-2.344-1.717-4.203-5.023-4.865-7.938c-1.871-8.232-11.578-14.523-19.862-12.305c-4.596,1.232-9.24,2.285-13.834,3.525
		c-1.41,0.383-2.76,1.047-4.077,1.703c-2.734,1.357-5.503,2.674-8.114,4.248c-1.94,1.166-3.542,2.916-5.516,4.006
		c-1.142,0.633-2.879,0.918-4.038,0.5c-0.644-0.232-0.914-2.234-0.904-3.434c0.121-16.484,1.555-33.082-0.007-49.398
		c-0.817-8.555-2.164-16.531,0.517-24.879c1.73-5.395,2.769-11.012,4.083-16.537c0.494-2.078,1.195-4.166,1.275-6.271
		c0.223-5.816,0.396-11.473,4.422-16.371c1.201-1.459,0.85-4.121,1.469-6.154c1.128-3.719,2.452-7.377,3.692-11.062
		c0.576-1.707,1.693-3.43,1.637-5.115c-0.344-10.281,5.618-15.453,14.091-19.699c6.386-3.201,12.356-7.568,17.787-12.26
		c9.312-8.043,18.359-16.448,26.931-25.272c5.571-5.738,9.836-12.73,15.229-18.664c2.115-2.327,5.561-4.082,8.678-4.704
		c4.143-0.826,8.611-0.751,12.842-0.247c10.806,1.286,20.382-3.43,30.4-5.843c5.721-1.377,9.682-9.148,9.07-15.525
		c-0.15-1.561,0.245-3.174,0.39-4.763C520.73,403.212,521.074,403.313,521.418,403.414z"/>
	<path fill-rule="evenodd" clip-rule="evenodd" fill="#8B5E3C" stroke="#754C29" stroke-width="1.3223" stroke-miterlimit="10" d="
		M677.212,187.976c0.523,7.056,2.12,14.257,1.2,21.12c-0.609,4.562-4.276,9.105-7.508,12.853
		c-8.034,9.316-16.477,18.291-24.987,27.182c-9.656,10.093-20.229,19.107-32.009,26.731c-6.692,4.329-12.769,9.602-19.445,13.95
		c-4.731,3.081-9.894,5.577-15.06,7.896c-11.446,5.137-19.62,12.571-18.326,26.287c0.78,8.251-5.597,13.908-6.862,21.356
		c-0.14,0.817-2.017,1.928-3.068,1.906c-7.301-0.144-11.516,3.172-12.588,10.444c-0.062,0.417-0.578,0.768-0.901,1.17
		c-2.807-2.204-5.302-4.507-8.117-6.308c-8.67-5.547-18.205-8.78-28.032-11.944c-9.38-3.019-18.533-4.079-28.099-4.276
		c-1.242-0.024-3.18-0.894-3.503-1.822c-0.351-1.003,0.705-2.594,1.356-3.817c0.452-0.85,1.583-1.411,1.849-2.272
		c2.534-8.242,5.179-16.462,7.278-24.818c0.829-3.301,1.142-5.928,5.444-6.138c4.259-0.208,4.695-3.909,5.418-7.2
		c0.801-3.643,1.584-7.316,2.784-10.837c1.553-4.553,4.854-6.153,9.737-7.452c6.64-1.766,11.384-7.377,15.418-13.193
		c6.503-9.382,6.808-19.9,6.346-30.684c-0.273-6.433,0.248-12.93-0.444-19.305c-0.524-4.793-2.208-9.504-3.742-14.13
		c-2.387-7.187-2.224-14.217,0.524-21.214c0.418-1.062,1.42-1.935,1.684-3.011c2.596-10.629,5.072-21.287,7.619-31.928
		c0.948-3.955,1.958-7.896,3.006-11.824c0.297-1.107,1.023-2.116,1.229-3.23c2.448-13.156,5.165-26.277,7.063-39.515
		c0.689-4.819,2.668-6.978,7.054-6.888c10.116,0.209,20.511-1.876,30.018,3.854c1.989,1.198,4.771,1.153,7.209,1.514
		c5.999,0.885,8.331,3.145,8.285,9.012c-0.132,16.681-0.102,33.375-0.853,50.032c-0.3,6.667-2.58,13.229-3.755,19.878
		c-0.659,3.73-1.181,7.531-1.269,11.312c-0.276,11.746-0.999,23.377-4.559,34.719c-1.015,3.234-1.043,6.859-1.069,10.308
		c-0.062,7.955-0.234,15.701-4.119,23.122c-1.65,3.153-1.41,7.396-1.635,11.167c-0.181,3.055-0.955,5.125-3.923,6.751
		c-1.495,0.819-2.973,3.985-2.497,5.451c0.487,1.495,3.814,3.479,5.139,3.026c4.254-1.452,8.268-3.742,12.159-6.066
		c4.585-2.739,8.99-5.79,13.396-8.817c6.465-4.441,13.097-8.683,19.235-13.54c15.995-12.649,31.818-25.498,44.461-41.768
		c2.913-3.748,6.712-6.812,10.101-10.19C676.308,187.211,676.76,187.593,677.212,187.976z"/>
	<path fill-rule="evenodd" clip-rule="evenodd" fill="#8B5E3C" d="M686.106,173.366c0.625-1.573,0.979-3.332,1.913-4.69
		c5.062-7.356,10.561-14.429,15.308-21.976c2.831-4.5,4.021-10.049,6.945-14.465c2.389-3.607,6.206-6.297,9.589-9.157
		c0.217-0.184,3.146,1.701,3.12,2.576c-0.085,3.028-0.468,6.212-1.56,9.016c-2.875,7.382-6.261,14.562-9.298,21.884
		c-2.288,5.511-6.945,8.399-11.762,11.169c-2.737,1.575-5.482,3.144-8.29,4.59c-1.604,0.826-3.334,1.402-5.008,2.092
		C686.744,174.058,686.427,173.711,686.106,173.366z"/>
</g>
<g>
	<path fill-rule="evenodd" clip-rule="evenodd" fill="#808285" d="M358.773,571.212c-4.485-5.086-7.53-9.43-11.429-12.777
		c-8.685-7.461-17.579-14.846-29.959-15.178c-0.974-0.027-2.027-0.203-2.892-0.623c-15.297-7.422-31.444-4.533-47.293-3.459
		c-7.268,0.494-14.438,2.984-21.532,4.994c-1.391,0.393-3.289,2.934-3.062,4.121c0.303,1.584,2.473,4.004,3.813,3.988
		c6.062-0.08,12.293-0.156,18.13-1.59c14.76-3.629,29.311-4.721,43.896,0.488c1.084,0.385,2.256,0.869,3.358,0.809
		c11.767-0.67,20.732,6.039,28.865,12.691c6.351,5.195,11.937,12.221,13.445,21.15c0.111,0.65,0.065,1.428,0.412,1.926
		c7.049,10.113,4.139,21.693,4.753,32.717c0.331,5.93,0.14,11.904-0.158,17.842c-0.166,3.256-0.976,6.49-1.616,9.711
		c-1.338,6.742-3.054,13.428-3.943,20.225c-0.235,1.807,1.964,3.934,3.045,5.912c1.982-1.107,4.323-1.855,5.87-3.4
		c3.092-3.09,5.309-7.188,8.7-9.816c4.18-3.246,9.735-4.789,13.711-8.213c5.766-4.965,12.843-4.588,19.388-6.281
		c2.53-0.654,5.428,0.113,9.07,0.271c-1.36,2.371-1.94,3.33-2.471,4.314c-2.481,4.621-1.195,7.434,3.957,8.688
		c7.919,1.928,8.479,3.363,4.345,10.295c-0.989,1.656-1.906,3.562-2.102,5.432c-0.301,2.898,1.156,4.303,4.298,3.367
		c6.535-1.945,10.544,1.986,9.095,8.742c-3.23,15.059-11.141,27.055-23.673,35.924c-7.138,5.051-13.959,11.074-21.876,14.359
		c-8.945,3.713-17.767,10.27-28.367,7.332c-3.712-1.029-7.753-3.309-10.108-6.248c-3.8-4.742-8.262-5.773-13.137-3.875
		c-9.565,3.725-19.051,2.752-28.807,1.381c-9.634-1.352-19.396-1.768-29.067-2.889c-3.536-0.408-6.982-1.629-10.456-2.533
		c-2.864-0.748-5.672-2.029-8.569-2.264c-5.777-0.469-10.944-1.389-16.242-4.662c-5.788-3.576-13.141-4.52-19.575-7.18
		c-4.918-2.031-9.731-4.566-14.12-7.568c-6.482-4.432-12.989-9.01-18.664-14.391c-5.771-5.473-10.711-11.863-15.696-18.107
		c-3.255-4.076-6.146-8.486-8.816-12.975c-2.153-3.617-4.076-7.453-5.499-11.41c-2.794-7.775-5.377-15.641-7.644-23.584
		c-1.435-5.033-2.119-10.277-3.177-15.42c-0.563-2.74-1.71-5.461-1.729-8.193c-0.135-19.322-0.106-38.646,0.036-57.969
		c0.022-2.936,0.956-5.857,1.381-8.799c1.201-8.299,2.218-16.629,3.589-24.902c0.663-3.996,1.933-7.895,2.984-11.822
		c0.212-0.785,0.826-1.467,1.007-2.256c2.376-10.344,4.619-20.717,7.101-31.037c0.787-3.273,2.145-6.415,3.305-9.595
		c0.671-1.836,2.025-3.605,2.104-5.447c0.212-4.912,2.019-9.02,4.106-13.441c3.292-6.971,4.803-14.757,7.544-22.018
		c2.799-7.407,6.24-14.57,9.255-21.9c0.994-2.416,1.31-5.118,2.37-7.497c0.669-1.498,1.933-3.226,3.331-3.722
		c0.873-0.312,2.85,1.206,3.723,2.363c7.69,10.178,16.333,19.396,27.18,26.226c8.229,5.182,16.396,10.718,25.261,14.549
		c7.998,3.459,16.83,6.367,25.428,6.787c19.939,0.975,39.965,0.512,59.945,0.121c4.238-0.084,8.439-2.333,12.646-3.626
		c0.938-0.29,1.847-1.158,2.723-1.1c8.28,0.555,15.098-3.98,22.432-6.529c4.854-1.688,9.766-3.958,13.812-7.062
		c10.016-7.679,20.1-15.423,29.098-24.224c6.976-6.822,12.673-15.057,18.313-23.101c3.122-4.456,4.961-9.813,7.381-14.765
		c0.359-0.736,0.531-1.855,1.116-2.147c4.737-2.371,9.412-6.052,14.38-6.537c9.477-0.927,19.133-0.078,28.712,0.217
		c1.914,0.059,3.822,0.886,5.7,1.461c3.884,1.188,7.769,2.381,11.611,3.691c2.903,0.991,5.754,2.142,8.603,3.279
		c1.217,0.486,2.387,1.639,3.552,1.606c6.472-0.177,9.568,5.285,14.096,8.282c1.052,0.695,2.048,3.123,1.599,4.009
		c-0.561,1.106-2.637,1.991-4.067,2c-3.114,0.021-6.229-0.726-9.357-0.873c-3.114-0.147-6.828-0.553-7.189,3.947
		c-0.325,4.07,2.662,5.404,6.113,5.564c3.695,0.172,5.837,1.947,6.591,5.485c0.857,4.017-1.305,7.27-5.393,7.911
		c-2.275,0.359-4.628,0.251-6.901,0.624c-5.594,0.917-7.087,4.766-3.644,9.187c0.71,0.911,1.585,1.698,2.265,2.628
		c3.745,5.124,2.054,8.968-4.22,10.032c-3.076,0.521-6.067,1.519-9.117,2.194c-4.458,0.986-8.897,2.15-13.412,2.728
		c-4.408,0.565-9.07,1.353-13.321,0.515c-9.026-1.779-13.869,3.202-18.796,9.341c-7.891,9.833-15.582,19.955-24.507,28.792
		c-7.133,7.065-15.921,12.481-24.083,18.478c-4.172,3.064-8.362,6.246-12.952,8.564c-6.038,3.053-12.472,5.328-18.754,7.889
		c-0.906,0.369-1.965,0.359-2.877,0.719c-19.326,7.66-39.261,11.537-60.099,9.453c-3.241-0.322-6.411-1.354-9.614-2.059
		c-4.18-0.918-8.388-1.727-12.532-2.787c-4.695-1.197-9.333-2.615-13.991-3.957c-0.47-0.135-0.921-0.613-1.351-0.578
		c-8.385,0.717-14.704-4.916-22.037-7.373c-5.886-1.973-11.2-5.684-16.721-8.709c-6.458-3.541-12.783-7.34-19.362-10.633
		c-1.371-0.686-3.605,0.35-5.442,0.592c0.284,1.617,0.274,3.361,0.904,4.828c2.928,6.826,10.208,8.365,15.575,12.102
		c6.041,4.201,12.819,7.494,19.599,10.443c6.523,2.836,13.45,4.754,20.219,7.014c1.236,0.412,2.676,0.309,3.842,0.838
		c23.32,10.605,47.932,12.049,72.878,9.6c8.417-0.828,16.658-3.619,24.904-5.803c1.77-0.467,3.063-2.58,4.834-3.225
		c1.997-0.727,4.608-1.389,6.327-0.639c1.021,0.443,1.179,3.68,1.069,5.623c-0.076,1.332-1.217,2.639-1.998,3.883
		c-0.697,1.111-1.968,2.014-2.276,3.191c-2.349,8.977-4.464,18.014-6.779,27c-1.046,4.059-2.479,8.018-3.55,12.07
		c-0.832,3.156-1.441,6.379-2.025,9.594C359.111,566.22,359.076,567.944,358.773,571.212z"/>
	<path fill-rule="evenodd" clip-rule="evenodd" fill="#808285" d="M503.078,664.897c1.206-2.74,3.262-5.416,3.466-8.227
		c0.829-11.455,2.942-23.279,0.987-34.33c-1.612-9.096-8.009-17.564-16.672-22.885c-1.861-1.145-4.325-1.396-6.56-1.822
		c-3.688-0.701-6.201-3.865-5.774-7.277c0.728-5.857,1.381-11.727,1.957-17.6c0.331-3.373,0.966-5.93,5.274-6.41
		c1.64-0.184,3.69-2.602,4.339-4.43c1.02-2.891,0.798-6.197,1.505-9.232c0.876-3.764,2.275-7.404,3.239-11.152
		c0.933-3.627,1.699-7.307,2.348-10.998c0.369-2.098-0.031-4.398,0.653-6.348c0.434-1.234,2.197-2.693,3.419-2.744
		c1.033-0.041,2.914,1.684,3.089,2.83c1.344,8.746,6.328,16.227,7.451,25.295c1.457,11.73,5.812,23.084,8.608,34.676
		c0.878,3.641,0.976,7.52,1.048,11.297c0.153,8.084,0.419,16.197-0.09,24.254c-0.271,4.289-2.035,8.492-3.192,12.715
		c-0.39,1.42-1.462,2.801-1.418,4.172c0.251,7.494-3.899,13.506-6.645,19.932c-1.359,3.178-3.929,5.836-5.951,8.73
		C503.802,665.194,503.439,665.046,503.078,664.897z"/>
	<path fill-rule="evenodd" clip-rule="evenodd" fill="#808285" d="M474.834,605.495c4.295,1.266,7.689,2.133,10.979,3.289
		c1.484,0.523,3.112,1.334,4.088,2.502c5.465,6.547,10.974,13.123,9.579,22.641c-0.286,1.938-0.217,3.977,0.006,5.934
		c1.335,11.686-4.681,20.682-10.752,29.658c-0.532,0.785-1.459,1.965-2.115,1.91c-8.665-0.746-12.9,8.84-20.028,8.6
		c-3.929-3.631-7.434-6.787-10.841-10.045c-3.06-2.93-2.73-4.963,1.029-7.342c2.091-1.322,4.411-2.4,6.186-4.062
		c1.156-1.082,2.268-3.148,2.021-4.531c-0.242-1.383-2.164-2.504-3.43-3.65c-0.32-0.289-0.958-0.195-1.423-0.357
		c-3.007-1.055-7.59-1.273-6.895-5.471c0.363-2.199,4.095-3.971,6.505-5.645c1.002-0.697,2.846-0.262,3.747-1.014
		c1.831-1.521,4.52-3.496,4.53-5.295c0.008-1.715-2.645-4.301-4.651-5.002c-5.529-1.932-7.193-4.404-4.942-9.791
		c0.549-1.314,2.109-3.09,3.251-3.127C468.455,614.487,473.559,612.241,474.834,605.495z"/>
	<path fill-rule="evenodd" clip-rule="evenodd" fill="#808285" d="M533.923,430.042c0.904-1.881,1.441-4.086,2.776-5.582
		c4.768-5.352,2.358-10.082-0.953-14.724c-4.075-5.707-1.935-11.085,5.091-12.428c1.131-0.217,2.541-0.046,3.347-0.669
		c1.444-1.116,3.42-2.639,3.523-4.108c0.118-1.681-1.126-4.117-2.555-5.106c-2.663-1.847-4.84-3.543-3.957-7.114
		c0.904-3.654,3.136-5.375,7.087-5.614c2.224-0.136,4.92-1.218,6.397-2.81c2.2-2.37,0.212-5.046-4.023-7.193
		c-1.567-0.794-3.466-3.037-3.34-4.453c0.119-1.35,2.511-2.867,4.21-3.604c1.583-0.686,3.569-0.473,5.38-0.598
		c9.124-0.635,13.956,3.894,15.328,12.946c1.856,12.231,1.72,24.465-0.455,36.46c-0.924,5.093-4.289,10.458-8.068,14.136
		c-4.682,4.56-10.65,8.135-16.637,10.896c-3.574,1.648-8.244,0.925-12.423,1.268C534.408,431.177,534.166,430.609,533.923,430.042z"
		/>
	<path fill-rule="evenodd" clip-rule="evenodd" fill="#808285" d="M516.038,226.447c0.235-0.024,0.47-0.05,0.702-0.075
		c-0.831-7.514-1.436-15.062-2.566-22.53c-0.881-5.815-2.415-11.532-3.663-17.291c-0.385-1.767-0.457-3.694-1.242-5.265
		c-4.94-9.888-9.718-19.883-15.232-29.446c-2.649-4.595-5.452-9.948-12.313-9.935c-1.096,0.003-2.506-1.075-3.247-2.052
		c-6.616-8.746-17.151-11.689-25.744-17.491c-0.881-0.594-2.21-0.626-3.346-0.721c-6.254-0.519-12.574-1.757-18.758-1.279
		c-10.735,0.829-21.437-0.403-31.982,5.516c-8.957,5.026-14.617,11.352-19.002,19.98c-0.975,1.917-3.919,4.135-5.833,4.026
		c-5.204-0.296-10.361-1.677-15.501-2.793c-3.997-0.867-7.913-2.743-11.909-2.874c-30.746-0.999-61.595-4.507-91.93,4.591
		c-6.74,2.021-14.58,0.093-20.556,5.47c-0.644,0.58-1.896,0.459-2.85,0.728c-7.657,2.154-16.227,2.844-22.729,6.869
		c-7.749,4.798-13.046,5.584-20.53-0.259c-4.892-3.816-11.944-4.841-17.99-7.216c-1.19-0.468-2.159-1.473-3.309-2.082
		c-1.728-0.917-3.515-2.414-5.289-2.433c-15.78-0.155-31.483-4.18-47.061,4.334c-11.967,6.538-18.583,16.768-25.104,27.332
		c-3.488,5.651-4.553,12.792-6.771,19.239c-0.371,1.079-0.856,2.229-1.612,3.047c-3.295,3.568-3.805,7.833-3.75,12.442
		c0.05,3.948-0.682,7.904-0.647,11.854c0.105,12.807-1.941,25.724,5.509,37.748c6.989,11.282,14.981,20.082,29.26,20.733
		c12.562,0.572,25.247,2.346,36.524-5.542c0.754-0.527,1.963-0.355,2.841-0.762c2.039-0.945,4.261-1.736,5.953-3.14
		c5.457-4.522,11.32-3.013,12.572,3.875c1.559,8.579,2.36,17.291,3.587,25.933c0.413,2.906,0.948,5.82,1.743,8.642
		c1.188,4.213,2.69,8.336,3.982,12.521c0.581,1.878,0.739,3.916,1.506,5.705c2.924,6.825,5.744,13.719,9.114,20.325
		c4.285,8.398,8.298,17.106,13.841,24.644c5.955,8.099,13.078,15.518,20.578,22.246c5.764,5.172,12.516,9.641,19.533,12.909
		c7.229,3.366,14.29,7.995,22.906,7.681c1.341-0.05,2.685,1.215,4.097,1.64c2.816,0.849,5.666,2.115,8.529,2.187
		c12.712,0.313,25.437,0.438,38.15,0.283c7.379-0.091,14.806-0.436,22.107-1.416c6.119-0.821,12.099-2.696,18.118-4.188
		c1.407-0.349,2.786-0.928,4.08-1.592c5.754-2.954,11.659-5.67,17.154-9.05c7.428-4.569,15.104-9.014,21.615-14.721
		c6.979-6.115,13.186-13.28,18.878-20.646c4.972-6.433,9.377-13.484,12.881-20.813c3.116-6.514,7.951-12.63,7.39-20.56
		c-0.042-0.581,0.559-1.183,0.749-1.809c1.304-4.316,2.762-8.597,3.804-12.978c0.837-3.518,0.478-7.44,1.827-10.694
		c5.501-13.252,3.894-26.875,3.088-40.545c-0.144-2.44,0.737-6.599,2.163-7.106c2.443-0.869,5.751,0.279,8.577,1.034
		c1.974,0.526,3.701,2.507,5.617,2.634c8.728,0.578,17.485,0.995,26.228,0.922c4.194-0.035,9.439,0.062,12.36-2.242
		c8.169-6.441,13.412-15.031,12.924-26.125C515.922,232.732,516.038,229.587,516.038,226.447z M176.03,197.236
		c-1.698,3.208-2.811,6.832-3.575,10.404c-1.337,6.246-2.38,12.568-3.229,18.901c-0.897,6.68-1.802,13.396-2.023,20.118
		c-0.347,10.483-1.481,10.767-10.59,15.69c-12.392,6.697-25.104,5.946-38.271,5.4c-6.792-0.28-11.395-3.835-15.078-8.183
		c-9.5-11.216-12.924-23.665-8.627-38.737c2.047-7.184,4.762-13.94,8.16-20.202c3.498-6.448,8.341-12.519,15.738-15.663
		c6.251-2.657,12.234-5.947,18.496-8.57c2.967-1.242,6.311-1.581,10.387-2.542c3.342,1.043,7.199,2.236,11.047,3.452
		c1.876,0.592,3.894,0.952,5.576,1.899c4.349,2.447,9.106,4.577,12.623,7.956C179.451,189.837,177.87,193.759,176.03,197.236z
		 M250.891,339.538c-6.977,0.083-14.257-7.188-14.303-14.285c-0.048-7.351,7.121-15.205,13.985-15.318
		c7.137-0.12,15.01,7.748,15.023,15.012C265.608,332.103,258.204,339.453,250.891,339.538z M351.652,393.41
		c-0.021,16.631-13.883,30.402-30.638,31.086c-9.299,0.38-17.807-1.418-25.101-7.136c-2.879-2.256-5.424-5.379-7.101-8.633
		c-3.033-5.894-5.357-12.158-7.862-18.315c-1.041-2.554-1.369-5.473-2.74-7.802c-4.663-7.929-4.205-24.235,1.234-31.934
		c2.12-2.999,4.121-6.108,6.489-8.901c6.046-7.129,15.533-6.192,23.277-9.36c5.422-2.219,11.018,0.838,16.62,2.562
		c6.909,2.126,12.077,5.61,16.297,11.103c5.245,6.827,9.584,14.011,9.471,23.048c-0.055,4.459-0.009,8.92-0.009,13.379
		c0.021,0,0.041,0,0.063,0C351.654,386.14,351.656,389.774,351.652,393.41z M363.326,327.215
		c-6.435-0.078-14.278-8.638-14.255-15.559c0.021-6.587,7.638-13.876,14.396-13.774c6.731,0.099,14.344,7.454,14.453,13.968
		C378.028,318.214,369.407,327.29,363.326,327.215z M497.409,227.816c-0.635,7.394-5.816,12.111-13.272,12.792
		c-1.44,0.132-3.014,0.381-4.24,1.076c-7.629,4.325-15.163,3.272-22.715-0.118c-0.15-0.067-0.276-0.223-0.427-0.244
		c-15.995-2.382-17.066-15.145-19.008-27.304c-0.13-0.813-0.086-1.746-0.477-2.414c-6.701-11.444-9.85-24.951-19.996-34.399
		c-5.987-5.573-11.821-11.314-17.893-16.794c-2.682-2.42-3.67-5.505-1.313-7.771c4.631-4.452,9.82-8.396,15.138-12.022
		c2.486-1.695,5.784-2.254,8.768-3.151c1.871-0.562,3.991-1.467,5.742-1.073c10.814,2.432,21.85,4.462,30.071,13.007
		c4.757,4.941,9.939,9.499,14.418,14.675c3.061,3.54,5.623,7.658,7.671,11.876c1.412,2.908,2.399,5.053,6.188,5.115
		c1.524,0.023,3.64,1.753,4.403,3.257c2.201,4.321,4.274,8.804,5.587,13.452c1.054,3.741,0.976,7.812,1.302,11.744
		c0.137,1.639,0.022,3.298,0.022,4.948c0.034-0.001,0.067-0.001,0.102-0.001C497.479,218.918,497.789,223.397,497.409,227.816z"/>
	<path fill-rule="evenodd" clip-rule="evenodd" fill="#939598" d="M451.288,337.298c-0.789-0.666-1.754-1.482-2.719-2.299
		c2.688-2.024,5.228-4.344,8.181-5.848c0.665-0.339,4.104,2.294,4.006,3.354C460.237,338.228,455.051,335.726,451.288,337.298z"/>
</g>
<g>
	<path fill-rule="evenodd" clip-rule="evenodd" fill="#58595B" d="M488.53,215.018c0,1.814-0.013,3.629,0,5.443
		c0.062,8.077,0.054,8.023-7.544,9.695c-1.387,0.305-2.596,1.353-3.962,1.848c-2.805,1.016-5.674,2.721-8.492,2.672
		c-11.553-0.194-20.536-9.389-21.785-20.97c-0.366-3.407-2.241-6.655-3.463-9.963c-0.452-1.227-0.972-2.434-1.529-3.617
		c-1.494-3.175-2.96-6.367-4.56-9.489c-1.84-3.593-3.29-7.553-5.83-10.583c-6.297-7.515-12.833-14.882-19.857-21.707
		c-3.071-2.985-2.609-5.533,0.222-6.438c6.271-2.003,12.991-4.264,19.381-3.889c16.079,0.945,26.476,11.303,34.829,24.063
		c3.115,4.757,6.358,9.436,9.301,14.296c1.069,1.768,1.647,3.916,2.081,5.968c0.84,3.97,1.983,7.158,7.002,7.522
		c1.332,0.097,3.287,2.65,3.541,4.294c0.545,3.543,0.168,7.228,0.168,10.854C488.197,215.018,488.362,215.018,488.53,215.018z"/>
	<path fill-rule="evenodd" clip-rule="evenodd" fill="#58595B" d="M128.179,258.686c-5.449-1.571-11.636,0.379-17.177-4.772
		c-6.589-6.126-7.182-13.59-7.359-21.118c-0.331-13.984,4.484-26.56,14.522-36.338c3.772-3.676,9.56-5.291,14.453-7.798
		c0.562-0.287,1.414-0.076,1.914-0.415c9.607-6.5,18.854-2.161,28.224,0.742c3.512,1.089,4.674,2.789,2.94,6.153
		c-0.452,0.879-1.152,1.795-1.17,2.705c-0.308,15.816-8.854,30.432-6.866,46.537c0.582,4.719-1.041,6.436-5.313,9.11
		C144.651,258.309,136.593,257.477,128.179,258.686z"/>
</g>
</svg>
